/* XPM */
static char * favicon_xpm[] = {
"16 16 87 1",
" 	c None",
".	c #C2C2C2",
"+	c #A1A1A1",
"@	c #BBBBBB",
"#	c #D9D9D9",
"$	c #BABABA",
"%	c #C1C1C1",
"&	c #ECECEC",
"*	c #A7A7A7",
"=	c #636363",
"-	c #989898",
";	c #C3C3C3",
">	c #C5C5C5",
",	c #A6A6A6",
"'	c #747474",
")	c #646464",
"!	c #6D6D6D",
"~	c #8C8C8C",
"{	c #ABABAB",
"]	c #A5A5A5",
"^	c #787878",
"/	c #A8A8A8",
"(	c #606060",
"_	c #FFFFFF",
":	c #626262",
"<	c #7A7A7A",
"[	c #FEFEFE",
"}	c #949494",
"|	c #535353",
"1	c #919191",
"2	c #F0F0F0",
"3	c #5B5B5B",
"4	c #B3B3B3",
"5	c #5A5A5A",
"6	c #3E3E3E",
"7	c #4C4C4C",
"8	c #666666",
"9	c #616161",
"0	c #939393",
"a	c #F8F8F8",
"b	c #1C1C1C",
"c	c #999999",
"d	c #DFDFDF",
"e	c #0D0D0D",
"f	c #B1B1B1",
"g	c #343434",
"h	c #5D5D5D",
"i	c #676767",
"j	c #6F6F6F",
"k	c #9E9E9E",
"l	c #4F4F4F",
"m	c #F7F7F7",
"n	c #1B1B1B",
"o	c #E7E7E7",
"p	c #1D1D1D",
"q	c #7C7C7C",
"r	c #9B9B9B",
"s	c #525252",
"t	c #EFEFEF",
"u	c #9C9C9C",
"v	c #434343",
"w	c #414141",
"x	c #3D3D3D",
"y	c #3F3F3F",
"z	c #BFBFBF",
"A	c #3A3A3A",
"B	c #686868",
"C	c #6B6B6B",
"D	c #C4C4C4",
"E	c #F4F4F4",
"F	c #FAFAFA",
"G	c #D7D7D7",
"H	c #AFAFAF",
"I	c #828282",
"J	c #737373",
"K	c #818181",
"L	c #DEDEDE",
"M	c #E9E9E9",
"N	c #696969",
"O	c #9F9F9F",
"P	c #A2A2A2",
"Q	c #717171",
"R	c #B4B4B4",
"S	c #E8E8E8",
"T	c #898989",
"U	c #767676",
"V	c #DBDBDB",
"                ",
"                ",
"                ",
"                ",
"  .++@   #$%&   ",
"*=-;>,')!~{]^)/ ",
"(_:<[}|123:42567",
"8_,90=abc|defg*h",
"i_jklfmnj1opq(r=",
"9sgtugvuwxyzwAB:",
"}CDEFGHIJK{L[MNO",
" #PQCKRd S@TiUV ",
"                ",
"                ",
"                ",
"                "};
